<svg width="163" height="96" viewBox="0 0 163 96" fill="none" xmlns="http://www.w3.org/2000/svg">
<path d="M81.9934 20.4797C93.6697 21.2181 106.752 24.808 114.097 34.6397C118.791 40.9227 119.223 50.7505 114.683 57.1746C110.395 63.2418 103.504 67.5805 96.0558 65.0165C92.1737 63.6801 89.3721 60.8091 89.9682 56.4632C90.8789 49.8235 99.2262 45.3039 105.088 44.1513C123.381 40.5543 145.27 48.0285 156.963 62.6591" stroke="#121212" stroke-width="2" stroke-linecap="round"/>
<path d="M154.113 48.9564C155.123 52.0697 157.208 59.2466 157.47 63.0479" stroke="#121212" stroke-width="2" stroke-linecap="round"/>
<path d="M157.469 63.0479C154.247 62.4739 146.852 61.3913 143.05 61.6528" stroke="#121212" stroke-width="2" stroke-linecap="round"/>
<path d="M3.56567 13L6.84167 2.92H8.94867L12.2247 13H10.7057L7.68867 3.802H8.06667L5.08467 13H3.56567ZM5.26667 10.725V9.353H10.5307V10.725H5.26667ZM13.2005 13V2.92H14.6635V13H13.2005ZM16.2056 9.171V7.995H20.4056V9.171H16.2056ZM25.3535 13.21C24.6302 13.21 24.0235 13.035 23.5335 12.685C23.0435 12.3303 22.6725 11.852 22.4205 11.25C22.1685 10.648 22.0425 9.969 22.0425 9.213C22.0425 8.457 22.1662 7.778 22.4135 7.176C22.6655 6.574 23.0342 6.10033 23.5195 5.755C24.0095 5.405 24.6115 5.23 25.3255 5.23C26.0348 5.23 26.6462 5.405 27.1595 5.755C27.6775 6.10033 28.0765 6.574 28.3565 7.176C28.6365 7.77333 28.7765 8.45233 28.7765 9.213C28.7765 9.969 28.6365 10.6503 28.3565 11.257C28.0812 11.859 27.6868 12.335 27.1735 12.685C26.6648 13.035 26.0582 13.21 25.3535 13.21ZM21.7975 16.36V5.44H23.0995V10.879H23.2675V16.36H21.7975ZM25.1505 11.887C25.6172 11.887 26.0022 11.768 26.3055 11.53C26.6135 11.292 26.8422 10.9723 26.9915 10.571C27.1455 10.165 27.2225 9.71233 27.2225 9.213C27.2225 8.71833 27.1455 8.27033 26.9915 7.869C26.8422 7.46767 26.6112 7.148 26.2985 6.91C25.9858 6.672 25.5868 6.553 25.1015 6.553C24.6442 6.553 24.2662 6.665 23.9675 6.889C23.6735 7.113 23.4542 7.42567 23.3095 7.827C23.1695 8.22833 23.0995 8.69033 23.0995 9.213C23.0995 9.73567 23.1695 10.1977 23.3095 10.599C23.4495 11.0003 23.6712 11.3153 23.9745 11.544C24.2778 11.7727 24.6698 11.887 25.1505 11.887ZM33.1851 13.21C32.4291 13.21 31.7734 13.0397 31.2181 12.699C30.6627 12.3583 30.2334 11.8893 29.9301 11.292C29.6314 10.69 29.4821 9.997 29.4821 9.213C29.4821 8.42433 29.6361 7.73133 29.9441 7.134C30.2521 6.532 30.6837 6.06533 31.2391 5.734C31.7944 5.398 32.4431 5.23 33.1851 5.23C33.9411 5.23 34.5967 5.40033 35.1521 5.741C35.7074 6.08167 36.1367 6.55067 36.4401 7.148C36.7434 7.74533 36.8951 8.43367 36.8951 9.213C36.8951 10.0017 36.7411 10.697 36.4331 11.299C36.1297 11.8963 35.7004 12.3653 35.1451 12.706C34.5897 13.042 33.9364 13.21 33.1851 13.21ZM33.1851 11.831C33.9084 11.831 34.4474 11.5883 34.8021 11.103C35.1614 10.613 35.3411 9.983 35.3411 9.213C35.3411 8.42433 35.1591 7.79433 34.7951 7.323C34.4357 6.847 33.8991 6.609 33.1851 6.609C32.6951 6.609 32.2914 6.721 31.9741 6.945C31.6567 7.16433 31.4211 7.47 31.2671 7.862C31.1131 8.24933 31.0361 8.69967 31.0361 9.213C31.0361 10.0063 31.2181 10.641 31.5821 11.117C31.9461 11.593 32.4804 11.831 33.1851 11.831ZM39.3499 13L37.0399 5.433L38.4889 5.44L40.0709 10.627L41.6669 5.44H42.9269L44.5229 10.627L46.1049 5.44H47.5469L45.2369 13H44.0609L42.2969 7.526L40.5259 13H39.3499ZM51.46 13.21C50.7087 13.21 50.0483 13.0467 49.479 12.72C48.9143 12.3887 48.4733 11.929 48.156 11.341C47.8433 10.7483 47.687 10.0623 47.687 9.283C47.687 8.457 47.841 7.74067 48.149 7.134C48.4617 6.52733 48.8957 6.05833 49.451 5.727C50.0063 5.39567 50.6527 5.23 51.39 5.23C52.16 5.23 52.8157 5.40967 53.357 5.769C53.8983 6.12367 54.302 6.63 54.568 7.288C54.8387 7.946 54.946 8.72767 54.89 9.633H53.427V9.101C53.4177 8.22367 53.2497 7.575 52.923 7.155C52.601 6.735 52.1087 6.525 51.446 6.525C50.7133 6.525 50.1627 6.756 49.794 7.218C49.4253 7.68 49.241 8.34733 49.241 9.22C49.241 10.0507 49.4253 10.6947 49.794 11.152C50.1627 11.6047 50.6947 11.831 51.39 11.831C51.8473 11.831 52.2417 11.7283 52.573 11.523C52.909 11.313 53.1703 11.0143 53.357 10.627L54.792 11.082C54.498 11.7587 54.0523 12.2837 53.455 12.657C52.8577 13.0257 52.1927 13.21 51.46 13.21ZM48.765 9.633V8.492H54.162V9.633H48.765ZM56.0405 13V5.44H57.3425V7.274L57.1605 7.036C57.2538 6.79333 57.3752 6.57167 57.5245 6.371C57.6738 6.16567 57.8465 5.99767 58.0425 5.867C58.2338 5.727 58.4462 5.61967 58.6795 5.545C58.9175 5.46567 59.1602 5.419 59.4075 5.405C59.6548 5.38633 59.8928 5.398 60.1215 5.44V6.812C59.8742 6.74667 59.5988 6.728 59.2955 6.756C58.9968 6.784 58.7215 6.87967 58.4695 7.043C58.2315 7.197 58.0425 7.38367 57.9025 7.603C57.7672 7.82233 57.6692 8.06733 57.6085 8.338C57.5478 8.604 57.5175 8.88633 57.5175 9.185V13H56.0405ZM64.2509 13.21C63.4995 13.21 62.8392 13.0467 62.2699 12.72C61.7052 12.3887 61.2642 11.929 60.9469 11.341C60.6342 10.7483 60.4779 10.0623 60.4779 9.283C60.4779 8.457 60.6319 7.74067 60.9399 7.134C61.2525 6.52733 61.6865 6.05833 62.2419 5.727C62.7972 5.39567 63.4435 5.23 64.1809 5.23C64.9509 5.23 65.6065 5.40967 66.1479 5.769C66.6892 6.12367 67.0929 6.63 67.3589 7.288C67.6295 7.946 67.7369 8.72767 67.6809 9.633H66.2179V9.101C66.2085 8.22367 66.0405 7.575 65.7139 7.155C65.3919 6.735 64.8995 6.525 64.2369 6.525C63.5042 6.525 62.9535 6.756 62.5849 7.218C62.2162 7.68 62.0319 8.34733 62.0319 9.22C62.0319 10.0507 62.2162 10.6947 62.5849 11.152C62.9535 11.6047 63.4855 11.831 64.1809 11.831C64.6382 11.831 65.0325 11.7283 65.3639 11.523C65.6999 11.313 65.9612 11.0143 66.1479 10.627L67.5829 11.082C67.2889 11.7587 66.8432 12.2837 66.2459 12.657C65.6485 13.0257 64.9835 13.21 64.2509 13.21ZM61.5559 9.633V8.492H66.9529V9.633H61.5559ZM71.8344 13.21C71.1297 13.21 70.5207 13.035 70.0074 12.685C69.4987 12.335 69.1044 11.859 68.8244 11.257C68.549 10.6503 68.4114 9.969 68.4114 9.213C68.4114 8.45233 68.5514 7.77333 68.8314 7.176C69.1114 6.574 69.508 6.10033 70.0214 5.755C70.5394 5.405 71.153 5.23 71.8624 5.23C72.5764 5.23 73.176 5.405 73.6614 5.755C74.1514 6.10033 74.52 6.574 74.7674 7.176C75.0194 7.778 75.1454 8.457 75.1454 9.213C75.1454 9.969 75.0194 10.648 74.7674 11.25C74.5154 11.852 74.1444 12.3303 73.6544 12.685C73.1644 13.035 72.5577 13.21 71.8344 13.21ZM72.0374 11.887C72.518 11.887 72.91 11.7727 73.2134 11.544C73.5167 11.3153 73.7384 11.0003 73.8784 10.599C74.0184 10.1977 74.0884 9.73567 74.0884 9.213C74.0884 8.69033 74.016 8.22833 73.8714 7.827C73.7314 7.42567 73.512 7.113 73.2134 6.889C72.9194 6.665 72.5437 6.553 72.0864 6.553C71.601 6.553 71.202 6.672 70.8894 6.91C70.5767 7.148 70.3434 7.46767 70.1894 7.869C70.04 8.27033 69.9654 8.71833 69.9654 9.213C69.9654 9.71233 70.04 10.165 70.1894 10.571C70.3434 10.9723 70.572 11.292 70.8754 11.53C71.1834 11.768 71.5707 11.887 72.0374 11.887ZM74.0884 13V7.561H73.9204V2.92H75.3904V13H74.0884ZM10.4653 29.203C9.54593 29.203 8.79693 29 8.21826 28.594C7.63959 28.188 7.28493 27.6163 7.15426 26.879L8.65226 26.648C8.74559 27.04 8.96026 27.3503 9.29626 27.579C9.63693 27.803 10.0593 27.915 10.5633 27.915C11.0206 27.915 11.3776 27.8217 11.6343 27.635C11.8956 27.4483 12.0263 27.1917 12.0263 26.865C12.0263 26.6737 11.9796 26.5197 11.8863 26.403C11.7976 26.2817 11.6086 26.1673 11.3193 26.06C11.0299 25.9527 10.5889 25.8197 9.99626 25.661C9.34759 25.493 8.83193 25.3133 8.44926 25.122C8.07126 24.926 7.80059 24.6997 7.63726 24.443C7.47859 24.1817 7.39926 23.8667 7.39926 23.498C7.39926 23.0407 7.52059 22.6417 7.76326 22.301C8.00593 21.9603 8.34659 21.6967 8.78526 21.51C9.22859 21.3233 9.74659 21.23 10.3393 21.23C10.9179 21.23 11.4336 21.321 11.8863 21.503C12.3389 21.685 12.7053 21.944 12.9853 22.28C13.2653 22.6113 13.4333 23.001 13.4893 23.449L11.9913 23.722C11.9399 23.358 11.7696 23.071 11.4803 22.861C11.1909 22.651 10.8153 22.5367 10.3533 22.518C9.90993 22.4993 9.55059 22.574 9.27526 22.742C8.99993 22.9053 8.86226 23.1317 8.86226 23.421C8.86226 23.589 8.91359 23.7313 9.01626 23.848C9.12359 23.9647 9.32893 24.0767 9.63226 24.184C9.93559 24.2913 10.3836 24.4197 10.9763 24.569C11.6109 24.7323 12.1149 24.9143 12.4883 25.115C12.8616 25.311 13.1276 25.5467 13.2863 25.822C13.4496 26.0927 13.5313 26.4217 13.5313 26.809C13.5313 27.5557 13.2583 28.1413 12.7123 28.566C12.1709 28.9907 11.4219 29.203 10.4653 29.203ZM18.0131 29.21C17.2618 29.21 16.6015 29.0467 16.0321 28.72C15.4675 28.3887 15.0265 27.929 14.7091 27.341C14.3965 26.7483 14.2401 26.0623 14.2401 25.283C14.2401 24.457 14.3941 23.7407 14.7021 23.134C15.0148 22.5273 15.4488 22.0583 16.0041 21.727C16.5595 21.3957 17.2058 21.23 17.9431 21.23C18.7131 21.23 19.3688 21.4097 19.9101 21.769C20.4515 22.1237 20.8551 22.63 21.1211 23.288C21.3918 23.946 21.4991 24.7277 21.4431 25.633H19.9801V25.101C19.9708 24.2237 19.8028 23.575 19.4761 23.155C19.1541 22.735 18.6618 22.525 17.9991 22.525C17.2665 22.525 16.7158 22.756 16.3471 23.218C15.9785 23.68 15.7941 24.3473 15.7941 25.22C15.7941 26.0507 15.9785 26.6947 16.3471 27.152C16.7158 27.6047 17.2478 27.831 17.9431 27.831C18.4005 27.831 18.7948 27.7283 19.1261 27.523C19.4621 27.313 19.7235 27.0143 19.9101 26.627L21.3451 27.082C21.0511 27.7587 20.6055 28.2837 20.0081 28.657C19.4108 29.0257 18.7458 29.21 18.0131 29.21ZM15.3181 25.633V24.492H20.7151V25.633H15.3181ZM24.5919 29.21C24.0319 29.21 23.5629 29.1073 23.1849 28.902C22.8069 28.692 22.5199 28.4167 22.3239 28.076C22.1326 27.7307 22.0369 27.3527 22.0369 26.942C22.0369 26.5593 22.1046 26.2233 22.2399 25.934C22.3753 25.6447 22.5759 25.3997 22.8419 25.199C23.1079 24.9937 23.4346 24.828 23.8219 24.702C24.1579 24.604 24.5383 24.5177 24.9629 24.443C25.3876 24.3683 25.8333 24.2983 26.2999 24.233C26.7713 24.1677 27.2379 24.1023 27.6999 24.037L27.1679 24.331C27.1773 23.7383 27.0513 23.2997 26.7899 23.015C26.5333 22.7257 26.0899 22.581 25.4599 22.581C25.0633 22.581 24.6993 22.6743 24.3679 22.861C24.0366 23.043 23.8056 23.3463 23.6749 23.771L22.3099 23.351C22.4966 22.7023 22.8513 22.1867 23.3739 21.804C23.9013 21.4213 24.6013 21.23 25.4739 21.23C26.1506 21.23 26.7386 21.3467 27.2379 21.58C27.7419 21.8087 28.1106 22.1727 28.3439 22.672C28.4653 22.9193 28.5399 23.1807 28.5679 23.456C28.5959 23.7313 28.6099 24.0277 28.6099 24.345V29H27.3149V27.271L27.5669 27.495C27.2543 28.0737 26.8553 28.5053 26.3699 28.79C25.8893 29.07 25.2966 29.21 24.5919 29.21ZM24.8509 28.013C25.2663 28.013 25.6233 27.9407 25.9219 27.796C26.2206 27.6467 26.4609 27.4577 26.6429 27.229C26.8249 27.0003 26.9439 26.7623 26.9999 26.515C27.0793 26.291 27.1236 26.039 27.1329 25.759C27.1469 25.479 27.1539 25.255 27.1539 25.087L27.6299 25.262C27.1679 25.332 26.7479 25.395 26.3699 25.451C25.9919 25.507 25.6489 25.563 25.3409 25.619C25.0376 25.6703 24.7669 25.7333 24.5289 25.808C24.3283 25.878 24.1486 25.962 23.9899 26.06C23.8359 26.158 23.7123 26.277 23.6189 26.417C23.5303 26.557 23.4859 26.7273 23.4859 26.928C23.4859 27.124 23.5349 27.306 23.6329 27.474C23.7309 27.6373 23.8803 27.768 24.0809 27.866C24.2816 27.964 24.5383 28.013 24.8509 28.013ZM30.0076 29V21.44H31.3096V23.274L31.1276 23.036C31.221 22.7933 31.3423 22.5717 31.4916 22.371C31.641 22.1657 31.8136 21.9977 32.0096 21.867C32.201 21.727 32.4133 21.6197 32.6466 21.545C32.8846 21.4657 33.1273 21.419 33.3746 21.405C33.622 21.3863 33.86 21.398 34.0886 21.44V22.812C33.8413 22.7467 33.566 22.728 33.2626 22.756C32.964 22.784 32.6886 22.8797 32.4366 23.043C32.1986 23.197 32.0096 23.3837 31.8696 23.603C31.7343 23.8223 31.6363 24.0673 31.5756 24.338C31.515 24.604 31.4846 24.8863 31.4846 25.185V29H30.0076ZM38.099 29.21C37.3243 29.21 36.6663 29.0373 36.125 28.692C35.5836 28.3467 35.1683 27.873 34.879 27.271C34.5943 26.669 34.4496 25.9853 34.445 25.22C34.4496 24.4407 34.599 23.7523 34.893 23.155C35.187 22.553 35.607 22.0817 36.153 21.741C36.699 21.4003 37.3546 21.23 38.12 21.23C38.946 21.23 39.6506 21.4353 40.234 21.846C40.822 22.2567 41.2093 22.819 41.396 23.533L39.94 23.953C39.7953 23.5283 39.5573 23.1993 39.226 22.966C38.8993 22.728 38.5236 22.609 38.099 22.609C37.6183 22.609 37.224 22.7233 36.916 22.952C36.608 23.176 36.3793 23.484 36.23 23.876C36.0806 24.268 36.0036 24.716 35.999 25.22C36.0036 25.9993 36.181 26.6293 36.531 27.11C36.8856 27.5907 37.4083 27.831 38.099 27.831C38.5703 27.831 38.9506 27.7237 39.24 27.509C39.534 27.2897 39.758 26.977 39.912 26.571L41.396 26.921C41.1486 27.6583 40.7403 28.2253 40.171 28.622C39.6016 29.014 38.911 29.21 38.099 29.21ZM47.708 29V25.283C47.708 24.989 47.6823 24.688 47.631 24.38C47.5843 24.0673 47.491 23.778 47.351 23.512C47.2157 23.246 47.022 23.0313 46.77 22.868C46.5227 22.7047 46.1983 22.623 45.797 22.623C45.5357 22.623 45.2883 22.6673 45.055 22.756C44.8217 22.84 44.6163 22.9777 44.439 23.169C44.2663 23.3603 44.1287 23.6123 44.026 23.925C43.928 24.2377 43.879 24.618 43.879 25.066L42.969 24.723C42.969 24.037 43.0973 23.4327 43.354 22.91C43.6107 22.3827 43.9793 21.972 44.46 21.678C44.9407 21.384 45.5217 21.237 46.203 21.237C46.7257 21.237 47.1643 21.321 47.519 21.489C47.8737 21.657 48.1607 21.8787 48.38 22.154C48.604 22.4247 48.7743 22.721 48.891 23.043C49.0077 23.365 49.087 23.68 49.129 23.988C49.171 24.296 49.192 24.5667 49.192 24.8V29H47.708ZM42.395 29V18.92H43.704V24.359H43.879V29H42.395ZM56.527 29.21C55.8037 29.21 55.197 29.035 54.707 28.685C54.217 28.3303 53.846 27.852 53.594 27.25C53.342 26.648 53.216 25.969 53.216 25.213C53.216 24.457 53.3397 23.778 53.587 23.176C53.839 22.574 54.2077 22.1003 54.693 21.755C55.183 21.405 55.785 21.23 56.499 21.23C57.2083 21.23 57.8197 21.405 58.333 21.755C58.851 22.1003 59.25 22.574 59.53 23.176C59.81 23.7733 59.95 24.4523 59.95 25.213C59.95 25.969 59.81 26.6503 59.53 27.257C59.2547 27.859 58.8603 28.335 58.347 28.685C57.8383 29.035 57.2317 29.21 56.527 29.21ZM52.971 29V18.92H54.441V23.561H54.273V29H52.971ZM56.324 27.887C56.7907 27.887 57.1757 27.768 57.479 27.53C57.787 27.292 58.0157 26.9723 58.165 26.571C58.319 26.165 58.396 25.7123 58.396 25.213C58.396 24.7183 58.319 24.2703 58.165 23.869C58.0157 23.4677 57.7847 23.148 57.472 22.91C57.1593 22.672 56.7603 22.553 56.275 22.553C55.8177 22.553 55.4397 22.665 55.141 22.889C54.847 23.113 54.6277 23.4257 54.483 23.827C54.343 24.2283 54.273 24.6903 54.273 25.213C54.273 25.7357 54.343 26.1977 54.483 26.599C54.623 27.0003 54.8447 27.3153 55.148 27.544C55.4513 27.7727 55.8433 27.887 56.324 27.887ZM63.2106 29.21C62.6506 29.21 62.1816 29.1073 61.8036 28.902C61.4256 28.692 61.1386 28.4167 60.9426 28.076C60.7513 27.7307 60.6556 27.3527 60.6556 26.942C60.6556 26.5593 60.7233 26.2233 60.8586 25.934C60.9939 25.6447 61.1946 25.3997 61.4606 25.199C61.7266 24.9937 62.0533 24.828 62.4406 24.702C62.7766 24.604 63.1569 24.5177 63.5816 24.443C64.0063 24.3683 64.4519 24.2983 64.9186 24.233C65.3899 24.1677 65.8566 24.1023 66.3186 24.037L65.7866 24.331C65.7959 23.7383 65.6699 23.2997 65.4086 23.015C65.1519 22.7257 64.7086 22.581 64.0786 22.581C63.6819 22.581 63.3179 22.6743 62.9866 22.861C62.6553 23.043 62.4243 23.3463 62.2936 23.771L60.9286 23.351C61.1153 22.7023 61.4699 22.1867 61.9926 21.804C62.5199 21.4213 63.2199 21.23 64.0926 21.23C64.7693 21.23 65.3573 21.3467 65.8566 21.58C66.3606 21.8087 66.7293 22.1727 66.9626 22.672C67.0839 22.9193 67.1586 23.1807 67.1866 23.456C67.2146 23.7313 67.2286 24.0277 67.2286 24.345V29H65.9336V27.271L66.1856 27.495C65.8729 28.0737 65.4739 28.5053 64.9886 28.79C64.5079 29.07 63.9153 29.21 63.2106 29.21ZM63.4696 28.013C63.8849 28.013 64.2419 27.9407 64.5406 27.796C64.8393 27.6467 65.0796 27.4577 65.2616 27.229C65.4436 27.0003 65.5626 26.7623 65.6186 26.515C65.6979 26.291 65.7423 26.039 65.7516 25.759C65.7656 25.479 65.7726 25.255 65.7726 25.087L66.2486 25.262C65.7866 25.332 65.3666 25.395 64.9886 25.451C64.6106 25.507 64.2676 25.563 63.9596 25.619C63.6563 25.6703 63.3856 25.7333 63.1476 25.808C62.9469 25.878 62.7673 25.962 62.6086 26.06C62.4546 26.158 62.3309 26.277 62.2376 26.417C62.1489 26.557 62.1046 26.7273 62.1046 26.928C62.1046 27.124 62.1536 27.306 62.2516 27.474C62.3496 27.6373 62.4989 27.768 62.6996 27.866C62.9003 27.964 63.1569 28.013 63.4696 28.013ZM68.6263 29V21.44H69.9283V23.274L69.7463 23.036C69.8396 22.7933 69.961 22.5717 70.1103 22.371C70.2596 22.1657 70.4323 21.9977 70.6283 21.867C70.8196 21.727 71.032 21.6197 71.2653 21.545C71.5033 21.4657 71.746 21.419 71.9933 21.405C72.2406 21.3863 72.4786 21.398 72.7073 21.44V22.812C72.46 22.7467 72.1846 22.728 71.8813 22.756C71.5826 22.784 71.3073 22.8797 71.0553 23.043C70.8173 23.197 70.6283 23.3837 70.4883 23.603C70.353 23.8223 70.255 24.0673 70.1943 24.338C70.1336 24.604 70.1033 24.8863 70.1033 25.185V29H68.6263Z" fill="black"/>
</svg>
