<svg width="27" height="32" viewBox="0 0 27 32" fill="none" xmlns="http://www.w3.org/2000/svg">
<path d="M0 5.5C0 4.67188 0.647879 4 1.44643 4H25.5536C26.3551 4 27 4.67188 27 5.5C27 6.33125 26.3551 7 25.5536 7H1.44643C0.647879 7 0 6.33125 0 5.5ZM0 15.5C0 14.6687 0.647879 14 1.44643 14H25.5536C26.3551 14 27 14.6687 27 15.5C27 16.3313 26.3551 17 25.5536 17H1.44643C0.647879 17 0 16.3313 0 15.5ZM25.5536 27H1.44643C0.647879 27 0 26.3312 0 25.5C0 24.6688 0.647879 24 1.44643 24H25.5536C26.3551 24 27 24.6688 27 25.5C27 26.3312 26.3551 27 25.5536 27Z" fill="#121212"/>
</svg>
