<svg width="18" height="20" viewBox="0 0 18 20" fill="none" xmlns="http://www.w3.org/2000/svg">
<g clip-path="url(#clip0_1_2963)">
<path d="M11.2794 3.32773L13.2254 2.5L13.9555 0.292617C14.0141 0.116602 14.1621 0 14.3275 0C14.4928 0 14.6409 0.116602 14.6994 0.292617L15.4296 2.5L17.3755 3.32773C17.5305 3.39375 17.6338 3.56211 17.6338 3.75C17.6338 3.9375 17.5305 4.10547 17.3755 4.17188L15.4296 5L14.6994 7.20703C14.6409 7.38281 14.4928 7.5 14.3275 7.5C14.1621 7.5 14.0141 7.38281 13.9555 7.20703L13.2254 5L11.2794 4.17188C11.0935 4.10547 11.0211 3.9375 11.0211 3.75C11.0211 3.56211 11.0935 3.39375 11.2794 3.32773ZM8.8789 7.31641L12.8052 9.375C13.0015 9.47656 13.1255 9.69922 13.1255 9.94531C13.1255 10.1875 13.0015 10.4102 12.8052 10.5117L8.8789 12.5703L7.06385 17.0234C6.97431 17.2461 6.77799 17.3867 6.56446 17.3867C6.34748 17.3867 6.15117 17.2461 6.06162 17.0234L4.24658 12.5703L0.320026 10.5117C0.124918 10.4102 0 10.1875 0 9.94531C0 9.69922 0.124918 9.47656 0.320026 9.375L4.24658 7.31641L6.06162 2.86289C6.15117 2.6418 6.34748 2.5 6.56446 2.5C6.77799 2.5 6.97431 2.6418 7.06385 2.86289L8.8789 7.31641ZM13.9555 12.793C14.0141 12.582 14.1621 12.5 14.3275 12.5C14.4928 12.5 14.6409 12.582 14.6994 12.793L15.4296 15L17.3755 15.8281C17.5305 15.8945 17.6338 16.0625 17.6338 16.25C17.6338 16.4375 17.5305 16.6055 17.3755 16.6719L15.4296 17.5L14.6994 19.707C14.6409 19.8828 14.4928 20 14.3275 20C14.1621 20 14.0141 19.8828 13.9555 19.707L13.2254 17.5L11.2794 16.6719C11.0935 16.6055 11.0211 16.4375 11.0211 16.25C11.0211 16.0625 11.0935 15.8945 11.2794 15.8281L13.2254 15L13.9555 12.793Z" fill="white"/>
</g>
<defs>
<clipPath id="clip0_1_2963">
<rect width="17.6338" height="20" fill="white"/>
</clipPath>
</defs>
</svg>
