<?xml version="1.0" encoding="utf-8"?>
<!-- Generator: Adobe Illustrator 27.9.0, SVG Export Plug-In . SVG Version: 6.00 Build 0)  -->
<svg version="1.1" id="Layer_1" xmlns="http://www.w3.org/2000/svg" xmlns:xlink="http://www.w3.org/1999/xlink" x="0px" y="0px"
	 viewBox="0 0 18 20" style="enable-background:new 0 0 18 20;" xml:space="preserve">
<style type="text/css">
	.st0{clip-path:url(#SVGID_00000096757905200206761070000016620486826051621772_);fill:#FFFFFF;}
</style>
<g>
	<defs>
		<rect id="SVGID_1_" x="0.4" y="0.8" width="17.6" height="20"/>
	</defs>
	<clipPath id="SVGID_00000162344522920018529780000017017459162418469271_">
		<use xlink:href="#SVGID_1_"  style="overflow:visible;"/>
	</clipPath>
	<path style="clip-path:url(#SVGID_00000162344522920018529780000017017459162418469271_);fill:#FFFFFF;" d="M11.6,4.1l1.9-0.8
		l0.7-2.2c0.1-0.2,0.2-0.3,0.4-0.3c0.2,0,0.3,0.1,0.4,0.3l0.7,2.2l1.9,0.8C17.9,4.2,18,4.4,18,4.5c0,0.2-0.1,0.4-0.3,0.4l-1.9,0.8
		L15.1,8c-0.1,0.2-0.2,0.3-0.4,0.3c-0.2,0-0.3-0.1-0.4-0.3l-0.7-2.2L11.6,5c-0.2-0.1-0.3-0.2-0.3-0.4C11.4,4.4,11.5,4.2,11.6,4.1z
		 M9.2,8.1l3.9,2.1c0.2,0.1,0.3,0.3,0.3,0.6c0,0.2-0.1,0.5-0.3,0.6l-3.9,2.1l-1.8,4.5c-0.1,0.2-0.3,0.4-0.5,0.4
		c-0.2,0-0.4-0.1-0.5-0.4l-1.8-4.5l-3.9-2.1c-0.2-0.1-0.3-0.3-0.3-0.6c0-0.2,0.1-0.5,0.3-0.6l3.9-2.1l1.8-4.5
		c0.1-0.2,0.3-0.4,0.5-0.4c0.2,0,0.4,0.1,0.5,0.4L9.2,8.1z M14.3,13.6c0.1-0.2,0.2-0.3,0.4-0.3c0.2,0,0.3,0.1,0.4,0.3l0.7,2.2
		l1.9,0.8c0.2,0.1,0.3,0.2,0.3,0.4s-0.1,0.4-0.3,0.4l-1.9,0.8l-0.7,2.2c-0.1,0.2-0.2,0.3-0.4,0.3c-0.2,0-0.3-0.1-0.4-0.3l-0.7-2.2
		l-1.9-0.8c-0.2-0.1-0.3-0.2-0.3-0.4s0.1-0.4,0.3-0.4l1.9-0.8L14.3,13.6z"/>
</g>
</svg>
