<?xml version="1.0" encoding="utf-8"?>
<!-- Generator: Adobe Illustrator 27.9.0, SVG Export Plug-In . SVG Version: 6.00 Build 0)  -->
<svg version="1.1" id="Layer_1" xmlns="http://www.w3.org/2000/svg" xmlns:xlink="http://www.w3.org/1999/xlink" x="0px" y="0px"
	 viewBox="0 0 18 20" style="enable-background:new 0 0 18 20;" xml:space="preserve">
<style type="text/css">
	.st0{clip-path:url(#SVGID_00000100381874893528040880000016267178936259153082_);fill:#909090;}
</style>
<g>
	<g>
		<defs>
			<rect id="SVGID_1_" width="17.6" height="20"/>
		</defs>
		<clipPath id="SVGID_00000023278831353038208820000006914606677247971756_">
			<use xlink:href="#SVGID_1_"  style="overflow:visible;"/>
		</clipPath>
		<path style="clip-path:url(#SVGID_00000023278831353038208820000006914606677247971756_);fill:#909090;" d="M11.3,3.3l1.9-0.8
			L14,0.3C14,0.1,14.2,0,14.3,0c0.2,0,0.3,0.1,0.4,0.3l0.7,2.2l1.9,0.8c0.2,0.1,0.3,0.2,0.3,0.4s-0.1,0.4-0.3,0.4L15.4,5l-0.7,2.2
			c-0.1,0.2-0.2,0.3-0.4,0.3S14,7.4,13.9,7.2L13.2,5l-1.9-0.8C11.1,4.1,11,3.9,11,3.8C11,3.6,11.1,3.4,11.3,3.3z M9.7,7.3l3.9,2.1
			C13.8,9.5,14,9.7,14,9.9s-0.1,0.5-0.3,0.6l-3.9,2.1L7.9,17c-0.1,0.2-0.3,0.4-0.5,0.4S7,17.3,6.9,17l-1.8-4.5l-3.9-2.1
			c-0.2,0-0.4-0.2-0.4-0.5c0-0.2,0.1-0.5,0.3-0.6L5,7.2l1.8-4.5C7,2.6,7.2,2.5,7.4,2.5c0.2,0,0.4,0.1,0.5,0.4L9.7,7.3z M14,12.8
			c0.1-0.2,0.2-0.3,0.4-0.3s0.3,0.1,0.4,0.3l0.7,2.2l1.9,0.8c0.2,0.1,0.3,0.2,0.3,0.4s-0.1,0.4-0.3,0.4l-1.9,0.8l-0.7,2.2
			c-0.1,0.2-0.2,0.3-0.4,0.3s-0.3-0.1-0.4-0.3l-0.7-2.2l-1.9-0.8c-0.2-0.1-0.3-0.2-0.3-0.4s0.1-0.4,0.3-0.4l1.9-0.8L14,12.8z"/>
	</g>
</g>
</svg>
